# xmcd CD database file
#
# Track frame offsets:
#	150
#	16440
#	30784
#	43928
#	73471
#	95017
#	116944
#	129955
#	147349
#	157364
#	167873
#	185281
#
# Disc length: 2763 seconds
#
# Revision: 5
# Processed by: cddbd v1.5.2PL0 Copyright (c) Steve Scherf et al.
# Submitted via: CDex 1.70beta2
#
DISCID=b10ac90c
DTITLE=Various Artist - Feelings 12 - (un brivido jazz)
DYEAR=2002
DGENRE=Jazz
TTITLE0=Nina Simone - My baby just cares for me
TTITLE1=Ella Fitzgerald and Louis Armstrong - Can anyone explain?
TTITLE2=Manhattan Transfer - Chanson d'amour
TTITLE3=Al Jarreau - Spain (I can recall)
TTITLE4=Tuck and Patti - Time after time
TTITLE5=Bobby McFerrin - Don't worry, be happy
TTITLE6=Julie London - 'Round midnight
TTITLE7=Cassandra Wilson - someday my prince will come
TTITLE8=Dee Dee Bridgewater - Sex machine
TTITLE9=Chet Baker - My funny valentine
TTITLE10=Sarah Vaughan - Sophisticated lady
TTITLE11=Jimmy Scott - Sorry seems to be the hardest word
EXTD=YEAR: 2002
EXTT0=
EXTT1=
EXTT2=
EXTT3=
EXTT4=
EXTT5=
EXTT6=
EXTT7=
EXTT8=
EXTT9=
EXTT10=
EXTT11=
PLAYORDER=
